<svg id="adda62c4-b5b8-4aa4-99af-31d4e05cfb62" data-name="레이어 1" xmlns="http://www.w3.org/2000/svg" width="200.76416" height="47.90753" viewBox="0 0 200.76416 47.90753"><title>survey_on</title><path d="M21.98193,27.03351a6.48719,6.48719,0,0,1,1.47071,4.47314,7.70415,7.70415,0,0,1-1.3501,4.4126,9.0719,9.0719,0,0,1-4.04981,3.16309,16.51358,16.51358,0,0,1-6.56835,1.16845,23.07781,23.07781,0,0,1-6.46778-.90673A15.15979,15.15979,0,0,1,0,36.98712l2.21631-4.9165a15.02446,15.02446,0,0,0,4.31152,2.13574,16.18585,16.18585,0,0,0,4.99707.80615,7.98318,7.98318,0,0,0,4.11035-.82617,2.49562,2.49562,0,0,0,1.32959-2.19629,2.10015,2.10015,0,0,0-.78564-1.67236,5.96477,5.96477,0,0,0-2.01514-1.06787q-1.22973-.4021-3.32422-.88623A45.91392,45.91392,0,0,1,5.561,26.83234a8.5755,8.5755,0,0,1-3.52637-2.4585A6.63462,6.63462,0,0,1,.564,19.86066,7.85011,7.85011,0,0,1,1.894,15.408a8.94474,8.94474,0,0,1,4.00928-3.16309A16.35616,16.35616,0,0,1,12.45166,11.076a21.69523,21.69523,0,0,1,5.27881.645,15.59165,15.59165,0,0,1,4.51318,1.85351L20.229,18.53107a15.7373,15.7373,0,0,0-7.81787-2.21631,7.33512,7.33512,0,0,0-4.0498.88623,2.70653,2.70653,0,0,0-1.30957,2.3374A2.28474,2.28474,0,0,0,8.563,21.69415a23.6583,23.6583,0,0,0,4.61377,1.39063A45.94014,45.94014,0,0,1,18.45557,24.616,8.74654,8.74654,0,0,1,21.98193,27.03351Zm21.0542,1.773A6.20685,6.20685,0,0,1,41.666,33.179a4.72149,4.72149,0,0,1-3.627,1.4707q-4.39233,0-4.39209-5.23877V18.08771H27.36035V30.3382q0,4.83545,2.49854,7.29345a9.23076,9.23076,0,0,0,6.77,2.458,9.38138,9.38138,0,0,0,3.74755-.7456,8.32932,8.32932,0,0,0,2.98194-2.15577V39.7674h5.96387V18.08771H43.03613ZM61.16992,20.949V18.08771H55.16553V39.7674h6.28613V29.532a6.10652,6.10652,0,0,1,1.53125-4.5332,5.761,5.761,0,0,1,4.23145-1.51123q.36254,0,1.41015.08057V17.76544a11.2937,11.2937,0,0,0-4.4126.80567A6.99166,6.99166,0,0,0,61.16992,20.949Zm21.23584,11.8872-6.0039-14.74853h-6.4878L79.021,39.7674h6.48779l9.14795-21.67969H88.61182Zm33.99024-9.772a11.71932,11.71932,0,0,1,1.4707,5.94385q0,.12084-.12109,1.69238h-16.4004a5.09973,5.09973,0,0,0,2.09571,3.18359,6.93529,6.93529,0,0,0,4.11035,1.16846,8.32426,8.32426,0,0,0,3.00195-.50342,7.28325,7.28325,0,0,0,2.4375-1.59179l3.34473,3.62646q-3.063,3.5061-8.94629,3.50586a14.14338,14.14338,0,0,1-6.4873-1.43066,10.48553,10.48553,0,0,1-4.35254-3.96875,10.941,10.941,0,0,1-1.53125-5.7627,11.07589,11.07589,0,0,1,1.51172-5.74219,10.58258,10.58258,0,0,1,4.15039-3.98925,12.84973,12.84973,0,0,1,11.666-.06055A10.01188,10.01188,0,0,1,116.396,23.06427Zm-4.45313,3.96924a5.19926,5.19926,0,0,0-1.77246-3.28418,5.3062,5.3062,0,0,0-3.54687-1.229,5.41079,5.41079,0,0,0-3.58594,1.209,5.14917,5.14917,0,0,0-1.77344,3.3042Zm19.06055,5.76269-6.085-14.70849h-6.48731l9.38867,21.84082-.08007.20166a5.3197,5.3197,0,0,1-1.45118,2.07519,3.32427,3.32427,0,0,1-2.09472.62452,5.1978,5.1978,0,0,1-1.874-.3628,5.40436,5.40436,0,0,1-1.67285-1.00732l-2.29687,4.47314a7.3917,7.3917,0,0,0,2.70019,1.45069,11.02753,11.02753,0,0,0,3.34473.52392,9.03545,9.03545,0,0,0,5.29883-1.53125,11.33115,11.33115,0,0,0,3.6875-5.2793l9.792-23.00927h-6.04492Zm67.28222-12.61279a8.91837,8.91837,0,0,0-6.50781-2.418,10.80448,10.80448,0,0,0-4.06933.74561,8.34559,8.34559,0,0,0-3.10352,2.11523V18.08771h-6.00391V39.7674h6.28614V29.04865a6.09046,6.09046,0,0,1,1.41015-4.37256,5.00553,5.00553,0,0,1,3.78809-1.47071,4.14052,4.14052,0,0,1,3.26465,1.26953,5.6583,5.6583,0,0,1,1.12793,3.84815V39.7674h6.28613V27.35577Q200.76416,22.60163,198.28564,20.18341ZM162.02588,0h-5.19922V7h5.19922Zm7.22266,9.14844,3.98437,3.34277,4.31836-5.14648L173.56689,4.002Zm-19.64454,0L145.28564,4.002l-3.98388,3.34278,4.31787,5.14648Zm24.32227,16.35138a14.5,14.5,0,1,1-14.5-14.5A14.5,14.5,0,0,1,173.92627,25.49982Zm-5.47339.16382a9.02661,9.02661,0,1,0-9.02661,9.02661A9.02666,9.02666,0,0,0,168.45288,25.66364Z" style="fill:#5e00ff"/></svg>