<svg width="24" height="24" viewBox="0 0 24 24" fill="none" xmlns="http://www.w3.org/2000/svg">
<path d="M11.896 4.00622L12 4C12.2177 4.00003 12.4279 4.07996 12.5906 4.22464C12.7533 4.36931 12.8572 4.56867 12.8827 4.78489L12.8889 4.88889V11.1111H19.1111C19.3288 11.1111 19.539 11.1911 19.7017 11.3357C19.8644 11.4804 19.9683 11.6798 19.9938 11.896L20 12C20 12.2177 19.92 12.4279 19.7754 12.5906C19.6307 12.7533 19.4313 12.8572 19.2151 12.8827L19.1111 12.8889H12.8889V19.1111C12.8889 19.3288 12.8089 19.539 12.6643 19.7017C12.5196 19.8644 12.3202 19.9683 12.104 19.9938L12 20C11.7823 20 11.5721 19.92 11.4094 19.7754C11.2467 19.6307 11.1428 19.4313 11.1173 19.2151L11.1111 19.1111V12.8889H4.88889C4.67117 12.8889 4.46103 12.8089 4.29834 12.6643C4.13564 12.5196 4.0317 12.3202 4.00622 12.104L4 12C4.00003 11.7823 4.07996 11.5721 4.22464 11.4094C4.36931 11.2467 4.56867 11.1428 4.78489 11.1173L4.88889 11.1111H11.1111V4.88889C11.1111 4.67117 11.1911 4.46103 11.3357 4.29834C11.4804 4.13564 11.6798 4.0317 11.896 4.00622L12 4L11.896 4.00622Z" fill="#5E00FF"/>
</svg>
