<svg width="16" height="16" viewBox="0 0 16 16" fill="none" xmlns="http://www.w3.org/2000/svg">
<path d="M7.98745 11.9973C7.72089 11.9978 7.46256 11.9049 7.2573 11.7346L0.412139 6.02324C0.179156 5.82936 0.0326414 5.55074 0.00482755 5.2487C-0.0229863 4.94665 0.0701785 4.64592 0.263827 4.41265C0.457475 4.17938 0.735743 4.03268 1.03742 4.00483C1.33909 3.97699 1.63946 4.07026 1.87244 4.26415L7.98745 9.38151L14.1025 4.44691C14.2192 4.35203 14.3534 4.28117 14.4976 4.23842C14.6417 4.19566 14.7929 4.18185 14.9423 4.19777C15.0918 4.21369 15.2367 4.25903 15.3686 4.3312C15.5005 4.40336 15.6169 4.50091 15.7111 4.61825C15.8156 4.7357 15.8947 4.87349 15.9435 5.02298C15.9923 5.17248 16.0098 5.33045 15.9948 5.48702C15.9798 5.64358 15.9327 5.79535 15.8564 5.93283C15.7801 6.07031 15.6762 6.19053 15.5514 6.28596L8.70619 11.8031C8.49504 11.9465 8.24198 12.0149 7.98745 11.9973V11.9973Z" fill="#5A5A5A"/>
</svg>
