<svg width="24" height="24" viewBox="0 0 24 24" fill="none" xmlns="http://www.w3.org/2000/svg">
<path d="M6 11H8.4V13.4H6V11ZM6 15.8H8.4V18.2H6V15.8ZM10.8 11H13.2V13.4H10.8V11ZM10.8 15.8H13.2V18.2H10.8V15.8ZM15.6 11H18V13.4H15.6V11ZM15.6 15.8H18V18.2H15.6V15.8Z" fill="#5A5A5A"/>
<path d="M3.44444 24H20.5556C21.9037 24 23 22.9236 23 21.6V4.8C23 3.4764 21.9037 2.4 20.5556 2.4H18.1111V0H15.6667V2.4H8.33333V0H5.88889V2.4H3.44444C2.09633 2.4 1 3.4764 1 4.8V21.6C1 22.9236 2.09633 24 3.44444 24ZM20.5556 7.2L20.5568 21.6H3.44444V7.2H20.5556Z" fill="#5A5A5A"/>
</svg>
