<svg width="24" height="24" viewBox="0 0 24 24" fill="none" xmlns="http://www.w3.org/2000/svg">
<path d="M9.20833 0C8.47195 0 7.875 0.596954 7.875 1.33333V1.33333H2.33333C1.59695 1.33333 1 1.93029 1 2.66667V2.66667C1 3.40305 1.59695 4 2.33333 4H2.375V21.3333C2.375 22.0406 2.66473 22.7189 3.18046 23.219C3.69618 23.719 4.39565 24 5.125 24H18.875C19.6043 24 20.3038 23.719 20.8195 23.219C21.3353 22.7189 21.625 22.0406 21.625 21.3333V4H21.6667C22.403 4 23 3.40305 23 2.66667V2.66667C23 1.93029 22.403 1.33333 21.6667 1.33333H16.125V1.33333C16.125 0.596954 15.528 0 14.7917 0H9.20833ZM5.125 6C5.125 4.89543 6.02043 4 7.125 4H16.875C17.9796 4 18.875 4.89543 18.875 6V19.3333C18.875 20.4379 17.9796 21.3333 16.875 21.3333H7.125C6.02043 21.3333 5.125 20.4379 5.125 19.3333V6ZM9.25 6.66667C8.49061 6.66667 7.875 7.28228 7.875 8.04167V17.2917C7.875 18.0511 8.49061 18.6667 9.25 18.6667V18.6667C10.0094 18.6667 10.625 18.0511 10.625 17.2917V8.04167C10.625 7.28228 10.0094 6.66667 9.25 6.66667V6.66667ZM14.75 6.66667C13.9906 6.66667 13.375 7.28228 13.375 8.04167V17.2917C13.375 18.0511 13.9906 18.6667 14.75 18.6667V18.6667C15.5094 18.6667 16.125 18.0511 16.125 17.2917V8.04167C16.125 7.28228 15.5094 6.66667 14.75 6.66667V6.66667Z" fill="#5E00FF"/>
</svg>
