<svg width="16" height="16" viewBox="0 0 16 16" fill="none" xmlns="http://www.w3.org/2000/svg">
<g clip-path="url(#clip0)">
<path fill-rule="evenodd" clip-rule="evenodd" d="M7.976 1.10956C8.00238 0.996172 8.00827 0.87811 7.99335 0.762178C7.97843 0.646247 7.94298 0.534737 7.88905 0.434074C7.83511 0.333411 7.76377 0.245584 7.67911 0.175653C7.59446 0.105721 7.49817 0.0550672 7.39579 0.0266092C7.29342 -0.00184883 7.18698 -0.00754857 7.08261 0.00983845C6.97824 0.0272255 6.87801 0.0673555 6.78768 0.127917C6.69735 0.188478 6.61871 0.268274 6.55629 0.362706C6.49388 0.457139 6.44891 0.564342 6.424 0.67814L5.576 4.44466H2.4C2.18783 4.44466 1.98434 4.53819 1.83431 4.70466C1.68429 4.87114 1.6 5.09693 1.6 5.33236C1.6 5.5678 1.68429 5.79359 1.83431 5.96006C1.98434 6.12654 2.18783 6.22007 2.4 6.22007H5.176L4.376 9.77088H0.8C0.587827 9.77088 0.384344 9.8644 0.234315 10.0309C0.0842854 10.1974 0 10.4231 0 10.6586C0 10.894 0.0842854 11.1198 0.234315 11.2863C0.384344 11.4528 0.587827 11.5463 0.8 11.5463H3.976L3.224 14.8823C3.19648 14.9961 3.18966 15.1149 3.20394 15.2317C3.21822 15.3484 3.25332 15.4609 3.30718 15.5625C3.36104 15.6641 3.43259 15.7527 3.51766 15.8233C3.60273 15.8938 3.69961 15.9449 3.80265 15.9735C3.90569 16.0021 4.01282 16.0076 4.11781 15.9898C4.2228 15.9719 4.32353 15.9311 4.41413 15.8696C4.50474 15.8081 4.5834 15.7271 4.64553 15.6316C4.70766 15.536 4.75201 15.4276 4.776 15.3128L5.624 11.5463H8.776L8.024 14.8823C7.99648 14.9961 7.98966 15.1149 8.00394 15.2317C8.01822 15.3484 8.05332 15.4609 8.10718 15.5625C8.16104 15.6641 8.23259 15.7527 8.31766 15.8233C8.40273 15.8938 8.49961 15.9449 8.60265 15.9735C8.70569 16.0021 8.81282 16.0076 8.91781 15.9898C9.0228 15.9719 9.12353 15.9311 9.21414 15.8696C9.30474 15.8081 9.3834 15.7271 9.44553 15.6316C9.50766 15.536 9.55201 15.4276 9.576 15.3128L10.424 11.5463H13.6C13.8122 11.5463 14.0157 11.4528 14.1657 11.2863C14.3157 11.1198 14.4 10.894 14.4 10.6586C14.4 10.4231 14.3157 10.1974 14.1657 10.0309C14.0157 9.8644 13.8122 9.77088 13.6 9.77088H10.824L11.624 6.22007H15.2C15.4122 6.22007 15.6157 6.12654 15.7657 5.96006C15.9157 5.79359 16 5.5678 16 5.33236C16 5.09693 15.9157 4.87114 15.7657 4.70466C15.6157 4.53819 15.4122 4.44466 15.2 4.44466H12.024L12.776 1.10956C12.8024 0.996172 12.8083 0.87811 12.7934 0.762178C12.7784 0.646247 12.743 0.534737 12.689 0.434074C12.6351 0.333411 12.5638 0.245584 12.4791 0.175653C12.3945 0.105721 12.2982 0.0550672 12.1958 0.0266092C12.0934 -0.00184883 11.987 -0.00754857 11.8826 0.00983845C11.7782 0.0272255 11.678 0.0673555 11.5877 0.127917C11.4973 0.188478 11.4187 0.268274 11.3563 0.362706C11.2939 0.457139 11.2489 0.564342 11.224 0.67814L10.376 4.44466H7.224L7.976 1.10956ZM6.824 6.22007L6.024 9.77088H9.176L9.976 6.22007H6.824Z" fill="#5A5A5A"/>
</g>
<defs>
<clipPath id="clip0">
<rect width="16" height="16" fill="white"/>
</clipPath>
</defs>
</svg>
