<svg width="16" height="16" viewBox="0 0 16 16" fill="none" xmlns="http://www.w3.org/2000/svg">
<path fill-rule="evenodd" clip-rule="evenodd" d="M2.90909 5.83506C2.90909 5.06904 3.21558 4.33438 3.76114 3.79272C4.3067 3.25105 5.04664 2.94675 5.81818 2.94675C6.58972 2.94675 7.32966 3.25105 7.87522 3.79272C8.42078 4.33438 8.72727 5.06904 8.72727 5.83506C8.72727 6.60109 8.42078 7.33574 7.87522 7.87741C7.32966 8.41907 6.58972 8.72338 5.81818 8.72338C5.04664 8.72338 4.3067 8.41907 3.76114 7.87741C3.21558 7.33574 2.90909 6.60109 2.90909 5.83506ZM5.81818 1.50259C6.61309 1.50259 7.35855 1.71344 8 2.08242C8.96038 1.53075 10.0964 1.36302 11.1769 1.61336C12.2574 1.86369 13.2013 2.51329 13.8165 3.43001C14.4318 4.34673 14.6722 5.46173 14.4889 6.5482C14.3056 7.63468 13.7124 8.61103 12.8298 9.27865C14.6815 10.1004 16 11.7619 16 13.7779C16 13.9694 15.9234 14.1531 15.787 14.2885C15.6506 14.4239 15.4656 14.5 15.2727 14.5H0.727273C0.534388 14.5 0.349403 14.4239 0.213013 14.2885C0.0766231 14.1531 0 13.9694 0 13.7779C0 11.7619 1.31927 10.1004 3.16945 9.27865C2.44399 8.72874 1.91046 7.96682 1.64396 7.1001C1.37745 6.23339 1.39138 5.30552 1.68379 4.44708C1.97619 3.58864 2.53236 2.84284 3.27401 2.31464C4.01566 1.78644 4.90546 1.50244 5.81818 1.50259ZM5.09091 13.0558H10.0916C9.69382 11.4694 8.01164 10.1675 5.81818 10.1675C3.62473 10.1675 1.94255 11.4694 1.54473 13.0558H5.09091ZM11.5782 13.0558H14.4553C14.0575 11.4694 12.3753 10.1675 10.1818 10.1675C10.0814 10.1674 9.98095 10.1641 9.88073 10.1574C10.7716 10.9069 11.3927 11.9077 11.5782 13.0558ZM10.1818 8.72338C10.6053 8.72308 11.0237 8.63098 11.4076 8.4535C11.7915 8.27603 12.1318 8.01747 12.4047 7.69588C12.6775 7.37429 12.8763 6.99743 12.9873 6.59163C13.0982 6.18583 13.1186 5.76088 13.0469 5.34645C12.9753 4.93203 12.8134 4.53814 12.5725 4.19229C12.3316 3.84645 12.0176 3.55699 11.6523 3.34414C11.2871 3.13129 10.8795 3.00019 10.4579 2.95998C10.0363 2.91978 9.611 2.97145 9.21164 3.11138C9.84067 3.88161 10.1833 4.84345 10.1818 5.83506C10.1818 6.86764 9.81818 7.815 9.21164 8.55874C9.52319 8.66821 9.85133 8.72389 10.1818 8.72338Z" fill="#5A5A5A"/>
</svg>
