<svg width="24" height="24" viewBox="0 0 24 24" fill="none" xmlns="http://www.w3.org/2000/svg">
<path d="M0.75 5C0.551088 5 0.360322 5.10536 0.21967 5.29289C0.0790178 5.48043 0 5.73478 0 6C0 6.26522 0.0790178 6.51957 0.21967 6.70711C0.360322 6.89464 0.551088 7 0.75 7H23.25C23.4489 7 23.6397 6.89464 23.7803 6.70711C23.921 6.51957 24 6.26522 24 6C24 5.73478 23.921 5.48043 23.7803 5.29289C23.6397 5.10536 23.4489 5 23.25 5H0.75Z" fill="#5A5A5A"/>
<path d="M0.75 9C0.551088 9 0.360322 9.10536 0.21967 9.29289C0.0790178 9.48043 0 9.73478 0 10C0 10.2652 0.0790178 10.5196 0.21967 10.7071C0.360322 10.8946 0.551088 11 0.75 11H23.25C23.4489 11 23.6397 10.8946 23.7803 10.7071C23.921 10.5196 24 10.2652 24 10C24 9.73478 23.921 9.48043 23.7803 9.29289C23.6397 9.10536 23.4489 9 23.25 9H0.75Z" fill="#5A5A5A"/>
<path d="M0 14C0 13.7348 0.0790178 13.4804 0.21967 13.2929C0.360322 13.1054 0.551088 13 0.75 13H23.25C23.4489 13 23.6397 13.1054 23.7803 13.2929C23.921 13.4804 24 13.7348 24 14C24 14.2652 23.921 14.5196 23.7803 14.7071C23.6397 14.8946 23.4489 15 23.25 15H0.75C0.551088 15 0.360322 14.8946 0.21967 14.7071C0.0790178 14.5196 0 14.2652 0 14Z" fill="#5A5A5A"/>
<path d="M0.818182 17C0.601187 17 0.393079 17.1054 0.23964 17.2929C0.0862012 17.4804 0 17.7348 0 18C0 18.2652 0.0862012 18.5196 0.23964 18.7071C0.393079 18.8946 0.601187 19 0.818182 19H17.1818C17.3988 19 17.6069 18.8946 17.7604 18.7071C17.9138 18.5196 18 18.2652 18 18C18 17.7348 17.9138 17.4804 17.7604 17.2929C17.6069 17.1054 17.3988 17 17.1818 17H0.818182Z" fill="#5A5A5A"/>
</svg>
