<svg width="24" height="24" viewBox="0 0 24 24" fill="none" xmlns="http://www.w3.org/2000/svg">
<path d="M0 10C0 9.73478 0.0790178 9.48043 0.21967 9.29289C0.360322 9.10536 0.551088 9 0.75 9H23.25C23.4489 9 23.6397 9.10536 23.7803 9.29289C23.921 9.48043 24 9.73478 24 10C24 10.2652 23.921 10.5196 23.7803 10.7071C23.6397 10.8946 23.4489 11 23.25 11H0.75C0.551088 11 0.360322 10.8946 0.21967 10.7071C0.0790178 10.5196 0 10.2652 0 10Z" fill="#5A5A5A"/>
<path d="M0.818182 13C0.601187 13 0.393079 13.1054 0.23964 13.2929C0.0862012 13.4804 0 13.7348 0 14C0 14.2652 0.0862012 14.5196 0.23964 14.7071C0.393079 14.8946 0.601187 15 0.818182 15H17.1818C17.3988 15 17.6069 14.8946 17.7604 14.7071C17.9138 14.5196 18 14.2652 18 14C18 13.7348 17.9138 13.4804 17.7604 13.2929C17.6069 13.1054 17.3988 13 17.1818 13H0.818182Z" fill="#5A5A5A"/>
</svg>
