<svg width="24" height="24" viewBox="0 0 24 24" fill="none" xmlns="http://www.w3.org/2000/svg">
<g clip-path="url(#clip0)">
<path fill-rule="evenodd" clip-rule="evenodd" d="M20.0138 15.9829C21.0498 17.015 21.8751 18.2387 22.4439 19.5859C23.0047 20.9095 23.3032 22.3116 23.3334 23.7528C23.3342 23.7849 23.3285 23.817 23.3168 23.8469C23.305 23.8769 23.2874 23.9042 23.2649 23.9272C23.2424 23.9503 23.2155 23.9686 23.1859 23.9811C23.1562 23.9936 23.1243 24 23.0921 24H22H21.2831H2.71024H2H0.901194C0.869004 24 0.837138 23.9936 0.807473 23.9811C0.777809 23.9686 0.750946 23.9503 0.728467 23.9272C0.705988 23.9042 0.688349 23.8769 0.676588 23.8469C0.664827 23.817 0.659183 23.7849 0.659988 23.7528C0.687672 22.3207 0.989602 20.9073 1.54943 19.5889C2.1193 18.2423 2.94454 17.0188 3.97959 15.9859C5.01979 14.9427 6.23185 14.1256 7.5826 13.5558C7.58863 13.5528 7.59466 13.5505 7.60069 13.5482C7.60672 13.546 7.61275 13.5437 7.61878 13.5407C5.74039 12.1809 4.51928 9.97085 4.51928 7.47739C4.51928 3.34673 7.86602 0 11.9967 0C16.1273 0 19.4741 3.34673 19.4741 7.47739C19.4741 9.97085 18.253 12.1809 16.3746 13.5377C16.3806 13.5407 16.3866 13.543 16.3927 13.5452C16.3987 13.5475 16.4047 13.5497 16.4107 13.5528C17.7574 14.1226 18.9809 14.9479 20.0138 15.9829ZM3.16986 22C3.54156 20.3479 4.37252 18.8312 5.59868 17.605C7.30823 15.8955 9.57858 14.9548 11.9967 14.9548C14.4148 14.9548 16.6851 15.8955 18.3947 17.605C19.6208 18.8312 20.4518 20.3479 20.8235 22H3.16986ZM8.33034 11.1437C9.31024 12.1236 10.6128 12.6633 11.9967 12.6633C13.3806 12.6633 14.6831 12.1236 15.663 11.1437C16.6429 10.1638 17.1826 8.86131 17.1826 7.47739C17.1826 6.09347 16.6429 4.79095 15.663 3.81106C14.6831 2.83116 13.3806 2.29146 11.9967 2.29146C10.6128 2.29146 9.31024 2.83116 8.33034 3.81106C7.35044 4.79095 6.81074 6.09347 6.81074 7.47739C6.81074 8.86131 7.35044 10.1638 8.33034 11.1437Z" fill="#5E00FF"/>
</g>
<defs>
<clipPath id="clip0">
<rect width="24" height="24" fill="white"/>
</clipPath>
</defs>
</svg>
