<svg id="ad55b0f4-a4de-4ea4-b835-b90f753bf7fe" data-name="레이어 1" xmlns="http://www.w3.org/2000/svg" width="200.76416" height="47.90771" viewBox="0 0 200.76416 47.90771"><title>survey_on</title><path d="M21.98193,27.03369a6.4872,6.4872,0,0,1,1.47071,4.47315,7.70412,7.70412,0,0,1-1.3501,4.41259,9.0719,9.0719,0,0,1-4.04981,3.16309A16.51357,16.51357,0,0,1,11.48438,40.251a23.07782,23.07782,0,0,1-6.46778-.90674A15.15979,15.15979,0,0,1,0,36.9873l2.21631-4.9165a15.02446,15.02446,0,0,0,4.31152,2.13574,16.18587,16.18587,0,0,0,4.99707.80616,7.98316,7.98316,0,0,0,4.11035-.82618,2.49562,2.49562,0,0,0,1.32959-2.19629,2.10016,2.10016,0,0,0-.78564-1.67236A5.96477,5.96477,0,0,0,14.16406,29.25q-1.22973-.40211-3.32422-.88623A45.9119,45.9119,0,0,1,5.561,26.83252,8.5754,8.5754,0,0,1,2.03467,24.374,6.63462,6.63462,0,0,1,.564,19.86084,7.85013,7.85013,0,0,1,1.894,15.4082a8.94465,8.94465,0,0,1,4.00928-3.16308,16.356,16.356,0,0,1,6.54834-1.169,21.69523,21.69523,0,0,1,5.27881.645,15.59138,15.59138,0,0,1,4.51318,1.85352L20.229,18.53125a15.7373,15.7373,0,0,0-7.81787-2.21631,7.33512,7.33512,0,0,0-4.0498.88623,2.70653,2.70653,0,0,0-1.30957,2.3374A2.28476,2.28476,0,0,0,8.563,21.69434,23.65842,23.65842,0,0,0,13.17676,23.085a45.94216,45.94216,0,0,1,5.27881,1.53125A8.74664,8.74664,0,0,1,21.98193,27.03369Zm21.0542,1.773A6.20685,6.20685,0,0,1,41.666,33.1792a4.72145,4.72145,0,0,1-3.627,1.4707q-4.39233,0-4.39209-5.23877V18.08789H27.36035V30.33838q0,4.83545,2.49854,7.29346a9.23075,9.23075,0,0,0,6.77,2.458,9.38138,9.38138,0,0,0,3.74755-.7456,8.32929,8.32929,0,0,0,2.98194-2.15576v2.5791h5.96387V18.08789H43.03613Zm18.13379-7.85742V18.08789H55.16553V39.76758h6.28613V29.53223A6.10655,6.10655,0,0,1,62.98291,24.999a5.761,5.761,0,0,1,4.23145-1.51123q.36254,0,1.41015.08057V17.76562a11.2937,11.2937,0,0,0-4.4126.80567A6.9918,6.9918,0,0,0,61.16992,20.94922ZM82.40576,32.83643l-6.0039-14.74854h-6.4878L79.021,39.76758h6.48779l9.14795-21.67969H88.61182Zm33.99024-9.772a11.71934,11.71934,0,0,1,1.4707,5.94385q0,.12086-.12109,1.69238h-16.4004a5.09977,5.09977,0,0,0,2.09571,3.1836,6.93536,6.93536,0,0,0,4.11035,1.16845,8.32448,8.32448,0,0,0,3.00195-.50341,7.28328,7.28328,0,0,0,2.4375-1.5918l3.34473,3.62646q-3.063,3.50612-8.94629,3.50586a14.14338,14.14338,0,0,1-6.4873-1.43066,10.48553,10.48553,0,0,1-4.35254-3.96875,10.941,10.941,0,0,1-1.53125-5.7627,11.07583,11.07583,0,0,1,1.51172-5.74218,10.58253,10.58253,0,0,1,4.15039-3.98926,12.84973,12.84973,0,0,1,11.666-.06055A10.012,10.012,0,0,1,116.396,23.06445Zm-4.45313,3.96924a5.19928,5.19928,0,0,0-1.77246-3.28418,5.30619,5.30619,0,0,0-3.54687-1.229,5.41078,5.41078,0,0,0-3.58594,1.209,5.14919,5.14919,0,0,0-1.77344,3.3042Zm19.06055,5.7627-6.085-14.7085h-6.48731l9.38867,21.84082-.08007.20166a5.31974,5.31974,0,0,1-1.45118,2.0752,3.32433,3.32433,0,0,1-2.09472.62451,5.198,5.198,0,0,1-1.874-.36279A5.40438,5.40438,0,0,1,120.647,41.46l-2.29687,4.47315a7.39183,7.39183,0,0,0,2.70019,1.45068,11.02753,11.02753,0,0,0,3.34473.52392,9.03545,9.03545,0,0,0,5.29883-1.53125,11.33117,11.33117,0,0,0,3.6875-5.27929l9.792-23.00928h-6.04492Zm67.28222-12.6128a8.91837,8.91837,0,0,0-6.50781-2.418,10.80448,10.80448,0,0,0-4.06933.74561,8.34571,8.34571,0,0,0-3.10352,2.11523V18.08789h-6.00391V39.76758h6.28614V29.04883a6.0905,6.0905,0,0,1,1.41015-4.37256,5.00552,5.00552,0,0,1,3.78809-1.4707,4.14052,4.14052,0,0,1,3.26465,1.26953,5.65826,5.65826,0,0,1,1.12793,3.84814V39.76758h6.28613V27.356Q200.76416,22.6018,198.28564,20.18359ZM162.02588,0h-5.19922V7h5.19922Zm7.22363,9.14844,3.98242,3.34277,4.31836-5.146-3.98242-3.34277Zm-19.64648,0-4.31836-5.146-3.98291,3.34277,4.31885,5.146ZM173.92627,25.5a14.5,14.5,0,1,1-14.5-14.5A14.5,14.5,0,0,1,173.92627,25.5Zm-5.47339.16382a9.02661,9.02661,0,1,0-9.02661,9.02661A9.02665,9.02665,0,0,0,168.45288,25.66382Zm-5.64191-.81311a2.34317,2.34317,0,0,1-1.13256-4.39856,5.5198,5.5198,0,1,0,3.03393,3.4201A2.34237,2.34237,0,0,1,162.811,24.85071Z" style="fill:#5e00ff"/></svg>